<svg width="149" height="96" viewBox="0 0 149 96" fill="none" xmlns="http://www.w3.org/2000/svg">
<path d="M88.4434 16.4688L91.2324 23.4297L94.0215 16.4688H95.4805V25H94.3555V21.6777L94.4609 18.0918L91.6602 25H90.7988L88.0039 18.1094L88.1152 21.6777V25H86.9902V16.4688H88.4434ZM97.0098 21.7715C97.0098 21.1504 97.1309 20.5918 97.373 20.0957C97.6191 19.5996 97.959 19.2168 98.3926 18.9473C98.8301 18.6777 99.3281 18.543 99.8867 18.543C100.75 18.543 101.447 18.8418 101.979 19.4395C102.514 20.0371 102.781 20.832 102.781 21.8242V21.9004C102.781 22.5176 102.662 23.0723 102.424 23.5645C102.189 24.0527 101.852 24.4336 101.41 24.707C100.973 24.9805 100.469 25.1172 99.8984 25.1172C99.0391 25.1172 98.3418 24.8184 97.8066 24.2207C97.2754 23.623 97.0098 22.832 97.0098 21.8477V21.7715ZM98.0996 21.9004C98.0996 22.6035 98.2617 23.168 98.5859 23.5938C98.9141 24.0195 99.3516 24.2324 99.8984 24.2324C100.449 24.2324 100.887 24.0176 101.211 23.5879C101.535 23.1543 101.697 22.5488 101.697 21.7715C101.697 21.0762 101.531 20.5137 101.199 20.084C100.871 19.6504 100.434 19.4336 99.8867 19.4336C99.3516 19.4336 98.9199 19.6465 98.5918 20.0723C98.2637 20.498 98.0996 21.1074 98.0996 21.9004ZM106.139 23.5293L107.709 18.6602H108.816L106.543 25H105.717L103.42 18.6602H104.527L106.139 23.5293ZM111.037 25H109.953V18.6602H111.037V25ZM109.865 16.9785C109.865 16.8027 109.918 16.6543 110.023 16.5332C110.133 16.4121 110.293 16.3516 110.504 16.3516C110.715 16.3516 110.875 16.4121 110.984 16.5332C111.094 16.6543 111.148 16.8027 111.148 16.9785C111.148 17.1543 111.094 17.3008 110.984 17.418C110.875 17.5352 110.715 17.5938 110.504 17.5938C110.293 17.5938 110.133 17.5352 110.023 17.418C109.918 17.3008 109.865 17.1543 109.865 16.9785ZM115.408 25.1172C114.549 25.1172 113.85 24.8359 113.311 24.2734C112.771 23.707 112.502 22.9512 112.502 22.0059V21.8066C112.502 21.1777 112.621 20.6172 112.859 20.125C113.102 19.6289 113.438 19.2422 113.867 18.9648C114.301 18.6836 114.77 18.543 115.273 18.543C116.098 18.543 116.738 18.8145 117.195 19.3574C117.652 19.9004 117.881 20.6777 117.881 21.6895V22.1406H113.586C113.602 22.7656 113.783 23.2715 114.131 23.6582C114.482 24.041 114.928 24.2324 115.467 24.2324C115.85 24.2324 116.174 24.1543 116.439 23.998C116.705 23.8418 116.938 23.6348 117.137 23.377L117.799 23.8926C117.268 24.709 116.471 25.1172 115.408 25.1172ZM115.273 19.4336C114.836 19.4336 114.469 19.5938 114.172 19.9141C113.875 20.2305 113.691 20.6758 113.621 21.25H116.797V21.168C116.766 20.6172 116.617 20.1914 116.352 19.8906C116.086 19.5859 115.727 19.4336 115.273 19.4336ZM122.439 21.5488H120.436V25H119.305V16.4688H122.129C123.09 16.4688 123.828 16.6875 124.344 17.125C124.863 17.5625 125.123 18.1992 125.123 19.0352C125.123 19.5664 124.979 20.0293 124.689 20.4238C124.404 20.8184 124.006 21.1133 123.494 21.3086L125.498 24.9297V25H124.291L122.439 21.5488ZM120.436 20.6289H122.164C122.723 20.6289 123.166 20.4844 123.494 20.1953C123.826 19.9062 123.992 19.5195 123.992 19.0352C123.992 18.5078 123.834 18.1035 123.518 17.8223C123.205 17.541 122.752 17.3984 122.158 17.3945H120.436V20.6289ZM129.166 25.1172C128.307 25.1172 127.607 24.8359 127.068 24.2734C126.529 23.707 126.26 22.9512 126.26 22.0059V21.8066C126.26 21.1777 126.379 20.6172 126.617 20.125C126.859 19.6289 127.195 19.2422 127.625 18.9648C128.059 18.6836 128.527 18.543 129.031 18.543C129.855 18.543 130.496 18.8145 130.953 19.3574C131.41 19.9004 131.639 20.6777 131.639 21.6895V22.1406H127.344C127.359 22.7656 127.541 23.2715 127.889 23.6582C128.24 24.041 128.686 24.2324 129.225 24.2324C129.607 24.2324 129.932 24.1543 130.197 23.998C130.463 23.8418 130.695 23.6348 130.895 23.377L131.557 23.8926C131.025 24.709 130.229 25.1172 129.166 25.1172ZM129.031 19.4336C128.594 19.4336 128.227 19.5938 127.93 19.9141C127.633 20.2305 127.449 20.6758 127.379 21.25H130.555V21.168C130.523 20.6172 130.375 20.1914 130.109 19.8906C129.844 19.5859 129.484 19.4336 129.031 19.4336ZM134.908 23.5293L136.479 18.6602H137.586L135.312 25H134.486L132.189 18.6602H133.297L134.908 23.5293Z" fill="white"/>
<circle cx="37" cy="39" r="13.5" stroke="white"/>
<path d="M24.052 45.036L20.1047 47.2306L16.9536 50.1478L14.2158 53.4027L11.6188 57.0506L8.96995 61.7038L6.77141 66.1926L4 74" stroke="white"/>
<line x1="4.03835" y1="73.5015" x2="30.0383" y2="75.5015" stroke="white"/>
<path d="M29.5 76L28 95" stroke="white"/>
<path d="M15 52L26.411 73.7847L36.7623 52.3144" stroke="white"/>
<line x1="1.49985" y1="34.0122" x2="0.499852" y2="75.0122" stroke="white"/>
<line x1="1.03835" y1="74.5015" x2="27.0383" y2="76.5015" stroke="white"/>
<line x1="26.5" y1="77" x2="26.5" y2="95" stroke="white"/>
<line x1="0.5" y1="75" x2="0.5" y2="93" stroke="white"/>
<path d="M148.75 21C148.75 26.668 144.645 31.8509 137.894 35.6311C131.152 39.4068 121.821 41.75 111.5 41.75C101.179 41.75 91.848 39.4068 85.1056 35.6311C78.3553 31.8509 74.25 26.668 74.25 21C74.25 15.332 78.3553 10.1491 85.1056 6.36888C91.848 2.59318 101.179 0.25 111.5 0.25C121.821 0.25 131.152 2.59318 137.894 6.36888C144.645 10.1491 148.75 15.332 148.75 21Z" stroke="white" stroke-width="1"/>
<circle cx="69.5" cy="29.5" r="4.25" stroke="white" stroke-width="1"/>
<circle cx="58.5" cy="31.5" r="4.25" stroke="white" stroke-width="1"/>
</svg>
