<svg width="201" height="72" viewBox="0 0 201 72" fill="none" xmlns="http://www.w3.org/2000/svg">
<path d="M100.072 29.1146L104.721 40.7161L109.369 29.1146H111.801V43.3333H109.926V37.7962L110.102 31.8196L105.434 43.3333H103.998L99.3398 31.8489L99.5254 37.7962V43.3333H97.6504V29.1146H100.072ZM114.35 37.9525C114.35 36.9173 114.551 35.9863 114.955 35.1595C115.365 34.3327 115.932 33.6946 116.654 33.2454C117.383 32.7962 118.214 32.5716 119.145 32.5716C120.583 32.5716 121.745 33.0696 122.631 34.0657C123.523 35.0618 123.969 36.3867 123.969 38.0403V38.1673C123.969 39.1959 123.77 40.1204 123.373 40.9407C122.982 41.7545 122.419 42.3893 121.684 42.845C120.954 43.3008 120.115 43.5286 119.164 43.5286C117.732 43.5286 116.57 43.0306 115.678 42.0345C114.792 41.0384 114.35 39.72 114.35 38.0794V37.9525ZM116.166 38.1673C116.166 39.3392 116.436 40.2799 116.977 40.9896C117.523 41.6992 118.253 42.054 119.164 42.054C120.082 42.054 120.811 41.6959 121.352 40.9798C121.892 40.2571 122.162 39.248 122.162 37.9525C122.162 36.7936 121.885 35.8561 121.332 35.14C120.785 34.4173 120.056 34.056 119.145 34.056C118.253 34.056 117.533 34.4108 116.986 35.1204C116.439 35.8301 116.166 36.8457 116.166 38.1673ZM129.564 40.8821L132.182 32.7669H134.027L130.238 43.3333H128.861L125.033 32.7669H126.879L129.564 40.8821ZM137.729 43.3333H135.922V32.7669H137.729V43.3333ZM135.775 29.9642C135.775 29.6712 135.863 29.4238 136.039 29.222C136.221 29.0202 136.488 28.9193 136.84 28.9193C137.191 28.9193 137.458 29.0202 137.641 29.222C137.823 29.4238 137.914 29.6712 137.914 29.9642C137.914 30.2571 137.823 30.5013 137.641 30.6966C137.458 30.8919 137.191 30.9896 136.84 30.9896C136.488 30.9896 136.221 30.8919 136.039 30.6966C135.863 30.5013 135.775 30.2571 135.775 29.9642ZM145.014 43.5286C143.581 43.5286 142.416 43.0599 141.518 42.1224C140.619 41.1784 140.17 39.9186 140.17 38.3431V38.011C140.17 36.9629 140.368 36.0286 140.766 35.2083C141.169 34.3815 141.729 33.737 142.445 33.2747C143.168 32.806 143.949 32.5716 144.789 32.5716C146.163 32.5716 147.23 33.0241 147.992 33.929C148.754 34.834 149.135 36.1295 149.135 37.8157V38.5677H141.977C142.003 39.6094 142.305 40.4525 142.885 41.097C143.471 41.735 144.213 42.054 145.111 42.054C145.749 42.054 146.29 41.9238 146.732 41.6634C147.175 41.403 147.562 41.0579 147.895 40.6282L148.998 41.4876C148.113 42.8483 146.785 43.5286 145.014 43.5286ZM144.789 34.056C144.06 34.056 143.448 34.3229 142.953 34.8568C142.458 35.3841 142.152 36.1263 142.035 37.0833H147.328V36.9466C147.276 36.0286 147.029 35.319 146.586 34.8177C146.143 34.3099 145.544 34.056 144.789 34.056ZM156.732 37.5814H153.393V43.3333H151.508V29.1146H156.215C157.816 29.1146 159.047 29.4791 159.906 30.2083C160.772 30.9375 161.205 31.9987 161.205 33.3919C161.205 34.2773 160.964 35.0488 160.482 35.7064C160.007 36.3639 159.343 36.8554 158.49 37.181L161.83 43.2161V43.3333H159.818L156.732 37.5814ZM153.393 36.0482H156.273C157.204 36.0482 157.943 35.8073 158.49 35.3255C159.044 34.8437 159.32 34.1992 159.32 33.3919C159.32 32.513 159.057 31.8392 158.529 31.3704C158.008 30.9017 157.253 30.664 156.264 30.6575H153.393V36.0482ZM167.943 43.5286C166.511 43.5286 165.346 43.0599 164.447 42.1224C163.549 41.1784 163.1 39.9186 163.1 38.3431V38.011C163.1 36.9629 163.298 36.0286 163.695 35.2083C164.099 34.3815 164.659 33.737 165.375 33.2747C166.098 32.806 166.879 32.5716 167.719 32.5716C169.092 32.5716 170.16 33.0241 170.922 33.929C171.684 34.834 172.064 36.1295 172.064 37.8157V38.5677H164.906C164.932 39.6094 165.235 40.4525 165.814 41.097C166.4 41.735 167.143 42.054 168.041 42.054C168.679 42.054 169.219 41.9238 169.662 41.6634C170.105 41.403 170.492 41.0579 170.824 40.6282L171.928 41.4876C171.042 42.8483 169.714 43.5286 167.943 43.5286ZM167.719 34.056C166.99 34.056 166.378 34.3229 165.883 34.8568C165.388 35.3841 165.082 36.1263 164.965 37.0833H170.258V36.9466C170.206 36.0286 169.958 35.319 169.516 34.8177C169.073 34.3099 168.474 34.056 167.719 34.056ZM177.514 40.8821L180.131 32.7669H181.977L178.188 43.3333H176.811L172.982 32.7669H174.828L177.514 40.8821Z" fill="white"/>
<circle cx="37" cy="14" r="13.5" stroke="white"/>
<path d="M24.052 20.036L20.1047 22.2306L16.9536 25.1478L14.2158 28.4027L11.6188 32.0506L8.96995 36.7038L6.77141 41.1926L4 49" stroke="white"/>
<line x1="4.03835" y1="48.5015" x2="30.0383" y2="50.5015" stroke="white"/>
<path d="M29.5 51L28 70" stroke="white"/>
<path d="M15 27L26.411 48.7847L36.7623 27.3144" stroke="white"/>
<line x1="1.49985" y1="9.01219" x2="0.499852" y2="50.0122" stroke="white"/>
<line x1="1.03835" y1="49.5015" x2="27.0383" y2="51.5015" stroke="white"/>
<line x1="26.5" y1="52" x2="26.5" y2="70" stroke="white"/>
<line x1="0.5" y1="50" x2="0.5" y2="68" stroke="white"/>
<path d="M200.583 37C200.583 46.4467 193.741 55.0848 182.491 61.3852C171.253 67.678 155.701 71.5833 138.5 71.5833C121.299 71.5833 105.747 67.678 94.5094 61.3852C83.2588 55.0848 76.4167 46.4467 76.4167 37C76.4167 27.5534 83.2588 18.9152 94.5094 12.6148C105.747 6.32197 121.299 2.41667 138.5 2.41667C155.701 2.41667 171.253 6.32197 182.491 12.6148C193.741 18.9152 200.583 27.5534 200.583 37Z" stroke="white" stroke-width="0.833333"/>
<circle cx="70.5" cy="5.5" r="4.25" stroke="white" stroke-width="0.5"/>
<circle cx="81.5" cy="9.5" r="4.25" stroke="white" stroke-width="0.5"/>
<circle cx="58.5" cy="6.5" r="4.25" stroke="white" stroke-width="0.5"/>
</svg>
